<svg width="25" height="19" viewBox="0 0 25 19" fill="none" xmlns="http://www.w3.org/2000/svg">
<path d="M10.6055 0C4.2895 0 0.5 5.0665 0.5 7.6C0.5 10.1335 1.763 12.0335 4.2895 12.0335C6.816 12.0335 8.0795 12.6665 8.0795 14.5665C8.0795 17.0995 9.974 18.9995 12.5005 18.9995C20.7115 18.9995 24.5005 14.5665 24.5005 10.1335C24.5 2.5335 18.183 0 10.6055 0ZM9.0265 2.5335C9.23412 2.53376 9.43966 2.57492 9.63137 2.65461C9.82309 2.73431 9.99723 2.85098 10.1439 2.99798C10.2905 3.14497 10.4067 3.31941 10.4859 3.51132C10.5651 3.70324 10.6058 3.90888 10.6055 4.1165C10.6055 4.9915 9.8985 5.7 9.0265 5.7C8.1545 5.7 7.4475 4.991 7.4475 4.1165C7.44724 3.90888 7.48787 3.70324 7.56708 3.51132C7.64629 3.31941 7.76253 3.14497 7.90915 2.99798C8.05577 2.85098 8.22991 2.73431 8.42163 2.65461C8.61335 2.57492 8.81888 2.53376 9.0265 2.5335ZM14.0785 2.5335C14.2861 2.53376 14.4917 2.57492 14.6834 2.65461C14.8751 2.73431 15.0492 2.85098 15.1959 2.99798C15.3425 3.14497 15.4587 3.31941 15.5379 3.51132C15.6171 3.70324 15.6578 3.90888 15.6575 4.1165C15.6578 4.32416 15.6172 4.52985 15.5381 4.72183C15.4589 4.9138 15.3427 5.0883 15.196 5.23534C15.0494 5.38239 14.8752 5.49911 14.6835 5.57884C14.4917 5.65857 14.2862 5.69974 14.0785 5.7C13.8709 5.69967 13.6654 5.65845 13.4737 5.5787C13.282 5.49894 13.1079 5.38221 12.9613 5.23517C12.8147 5.08813 12.6985 4.91365 12.6194 4.72171C12.5402 4.52977 12.4997 4.32412 12.5 4.1165C12.4995 3.69728 12.6655 3.29501 12.9615 2.99815C13.2575 2.7013 13.6593 2.53416 14.0785 2.5335ZM19.1315 5.0665C19.3392 5.0667 19.5448 5.10782 19.7366 5.18752C19.9284 5.26721 20.1027 5.38392 20.2494 5.53098C20.396 5.67803 20.5123 5.85255 20.5915 6.04456C20.6707 6.23656 20.7113 6.4423 20.711 6.65C20.7113 6.85768 20.6707 7.06339 20.5915 7.25537C20.5123 7.44735 20.396 7.62183 20.2493 7.76884C20.1026 7.91586 19.9284 8.03252 19.7366 8.11217C19.5448 8.19181 19.3392 8.23287 19.1315 8.233C18.9239 8.2328 18.7183 8.19169 18.5266 8.11201C18.3349 8.03233 18.1608 7.91565 18.0142 7.76864C17.8676 7.62162 17.7514 7.44716 17.6723 7.25521C17.5931 7.06327 17.5526 6.85761 17.553 6.65C17.5526 6.44236 17.5931 6.23668 17.6723 6.04471C17.7514 5.85274 17.8676 5.67824 18.0141 5.53119C18.1607 5.38413 18.3349 5.2674 18.5266 5.18767C18.7183 5.10794 18.9239 5.06676 19.1315 5.0665ZM4.6055 6.3335C4.81307 6.3337 5.01857 6.37479 5.21026 6.45444C5.40194 6.53409 5.57605 6.65072 5.72264 6.79769C5.86923 6.94465 5.98543 7.11905 6.06459 7.31094C6.14375 7.50282 6.18433 7.70843 6.184 7.916C6.184 8.791 5.477 9.4995 4.6055 9.4995C3.734 9.4995 3.0265 8.7905 3.0265 7.916C3.0261 7.49678 3.19222 7.09456 3.48833 6.7978C3.78443 6.50104 4.18628 6.33403 4.6055 6.3335ZM12.5 12.6665C13.5465 12.6665 14.3945 13.5165 14.3945 14.567C14.3945 15.616 13.5465 16.4665 12.5 16.4665C11.4535 16.4665 10.6055 15.616 10.6055 14.567C10.605 14.3178 10.6537 14.0709 10.7487 13.8406C10.8436 13.6102 10.9831 13.4007 11.159 13.2242C11.3349 13.0477 11.5439 12.9077 11.774 12.812C12.0041 12.7163 12.2508 12.6668 12.5 12.6665Z" fill="white"/>
</svg>
