<svg width="16" height="16" viewBox="0 0 16 16" fill="none" xmlns="http://www.w3.org/2000/svg">
<path d="M10.8085 7.60938L11.8232 8.625L10.5588 9.89062C10.4651 9.98438 10.4651 10.0781 10.5588 10.1719L10.8242 10.4375C10.9178 10.5312 11.0115 10.5312 11.1051 10.4375L12.3695 9.17188L14.3207 11.125L13.0563 12.3906C12.9627 12.4844 12.9627 12.5729 13.0563 12.6562L13.3217 12.9375C13.4154 13.0312 13.509 13.0312 13.6027 12.9375L14.8671 11.6719L15.8505 12.6562C15.9442 12.75 15.991 12.8646 15.991 13C15.991 13.1354 15.9442 13.2552 15.8505 13.3594L13.3529 15.8594C13.2489 15.9531 13.1292 16 12.9939 16C12.8586 16 12.7442 15.9531 12.6505 15.8594L7.60854 10.8125L4.67391 13.75C4.5074 13.9167 4.30448 14 4.06513 14C3.82578 14 3.62285 13.9167 3.45635 13.75L2.27001 12.5469C2.1035 12.3802 2.02025 12.1797 2.02025 11.9453C2.02025 11.7109 2.1035 11.5104 2.27001 11.3438L5.20464 8.40625L0.14708 3.34375C0.0534211 3.25 0.0065918 3.13542 0.0065918 3C0.0065918 2.86458 0.0534211 2.75 0.14708 2.65625L2.64464 0.140625C2.74871 0.046875 2.86838 0 3.00366 0C3.13895 0 3.25342 0.046875 3.34708 0.140625L4.33049 1.125L3.0661 2.39062C2.97245 2.48438 2.97245 2.57812 3.0661 2.67188L3.33147 2.9375C3.42513 3.03125 3.51879 3.03125 3.61245 2.9375L4.87684 1.67188L6.82806 3.625L5.56366 4.89062C5.47001 4.98438 5.47001 5.07812 5.56366 5.17188L5.82903 5.4375C5.92269 5.53125 6.01635 5.53125 6.11001 5.4375L7.3744 4.17188L8.38903 5.20312L13.3373 0.25C13.5038 0.0833333 13.7042 0 13.9383 0C14.1724 0 14.3728 0.0833333 14.5393 0.25L15.7412 1.45312C15.9077 1.61979 15.991 1.82031 15.991 2.05469C15.991 2.28906 15.9077 2.48958 15.7412 2.65625L10.8085 7.60938ZM1.03684 12.625C1.05765 12.7083 1.09407 12.776 1.1461 12.8281L3.17537 14.8594C3.2274 14.9115 3.29505 14.9479 3.3783 14.9688C3.32627 15.0729 3.28464 15.1354 3.25342 15.1562L0.506104 16C0.256348 16 0.110657 15.9792 0.0690308 15.9375C0.0274048 15.8958 0.0065918 15.75 0.0065918 15.5L0.849519 12.75C0.870332 12.7292 0.932771 12.6875 1.03684 12.625Z" fill="white"/>
</svg>
