<svg width="19" height="22" viewBox="0 0 19 22" fill="none" xmlns="http://www.w3.org/2000/svg">
<path d="M8.38235 0H10.6176V2.23124H11.1765C11.6211 2.23124 12.0475 2.40754 12.3619 2.72137C12.6763 3.0352 12.8529 3.46084 12.8529 3.90467V7.80933L12.3612 8.3002L14.1941 11.4686C15.4347 10.2525 16.2059 8.56795 16.2059 6.69371H18.4412C18.4412 9.39351 17.2453 11.8144 15.3453 13.4544L18.8547 19.5233L19 22L16.91 20.6389L13.4788 14.6927C12.2941 15.284 10.9306 15.6187 9.5 15.6187C8.06941 15.6187 6.70588 15.284 5.52118 14.6927L2.09 20.6389L0 22L0.145294 19.5233L6.63882 8.3002L6.14706 7.80933V3.90467C6.14706 3.46084 6.32369 3.0352 6.63809 2.72137C6.95248 2.40754 7.3789 2.23124 7.82353 2.23124H8.38235V0ZM6.63882 12.7515C7.51059 13.1643 8.48294 13.3874 9.5 13.3874C10.5171 13.3874 11.4894 13.1643 12.3612 12.7515L10.7294 9.92901H10.7182C10.0253 10.5984 8.97471 10.5984 8.28176 9.92901H8.27059L6.63882 12.7515ZM9.5 4.46247C9.20358 4.46247 8.9193 4.58001 8.7097 4.78923C8.5001 4.99845 8.38235 5.28221 8.38235 5.57809C8.38235 5.87397 8.5001 6.15774 8.7097 6.36695C8.9193 6.57617 9.20358 6.69371 9.5 6.69371C9.79642 6.69371 10.0807 6.57617 10.2903 6.36695C10.4999 6.15774 10.6176 5.87397 10.6176 5.57809C10.6176 5.28221 10.4999 4.99845 10.2903 4.78923C10.0807 4.58001 9.79642 4.46247 9.5 4.46247Z" fill="#FFFDFD"/>
</svg>
