<svg width="30" height="23" viewBox="0 0 30 23" fill="none" xmlns="http://www.w3.org/2000/svg">
<path d="M30 15.075C30 15.9 28.5 16.45 26.75 16.725C25.625 14.3875 23.375 12.6 20.75 11.3625C21 10.95 21.25 10.675 21.5 10.2625H22.5C26.375 10.125 30 12.7375 30 15.075ZM8.5 10.125H7.5C3.625 10.125 0 12.7375 0 15.075C0 15.9 1.5 16.45 3.25 16.725C4.375 14.3875 6.625 12.6 9.25 11.3625L8.5 10.125ZM15 11.5C17.75 11.5 20 9.025 20 6C20 2.975 17.75 0.5 15 0.5C12.25 0.5 10 2.975 10 6C10 9.025 12.25 11.5 15 11.5ZM15 12.875C9.875 12.875 5 16.45 5 19.75C5 22.5 15 22.5 15 22.5C15 22.5 25 22.5 25 19.75C25 16.45 20.125 12.875 15 12.875ZM22.125 8.75H22.5C24.625 8.75 26.25 6.9625 26.25 4.625C26.25 2.2875 24.625 0.5 22.5 0.5C21.875 0.5 21.375 0.6375 20.875 0.9125C21.875 2.2875 22.5 4.075 22.5 6C22.5 6.9625 22.375 7.925 22.125 8.75ZM7.5 8.75H7.875C7.625 7.925 7.5 6.9625 7.5 6C7.5 4.075 8.125 2.2875 9.125 0.9125C8.625 0.6375 8.125 0.5 7.5 0.5C5.375 0.5 3.75 2.2875 3.75 4.625C3.75 6.9625 5.375 8.75 7.5 8.75Z" fill="white"/>
</svg>
